<svg width="973" height="684" viewBox="0 0 973 684" fill="none" xmlns="http://www.w3.org/2000/svg">
<g opacity="0.79">
<path d="M133.648 288.141L195.252 250.368C173.108 263.964 157.695 294.312 149.339 313.709C113.686 400.393 114.197 511.531 126.128 546.427L64.5238 584.246C52.5466 549.35 52.036 438.166 87.7355 351.529C96.1381 332.086 111.504 301.737 133.648 288.141Z" fill="url(#paint0_linear)"/>
<path d="M133.648 288.141L195.252 250.368C173.108 263.964 157.695 294.312 149.339 313.709C113.686 400.393 114.197 511.531 126.128 546.427L64.5238 584.246C52.5466 549.35 52.036 438.166 87.7355 351.529C96.1381 332.086 111.504 301.737 133.648 288.141Z" fill="url(#paint1_linear)"/>
<path d="M155.08 603.458L93.4766 641.278C124.627 622.159 163.111 569.954 230.843 476.125C251.919 446.333 274.527 414.454 298.714 381.692L360.317 343.873C336.177 376.634 313.384 408.514 292.493 438.305C224.576 532.135 186.23 584.339 155.08 603.458Z" fill="url(#paint2_linear)"/>
<path d="M155.08 603.458L93.4766 641.278C124.627 622.159 163.111 569.954 230.843 476.125C251.919 446.333 274.527 414.454 298.714 381.692L360.317 343.873C336.177 376.634 313.384 408.514 292.493 438.305C224.576 532.135 186.23 584.339 155.08 603.458Z" fill="url(#paint3_linear)"/>
<path d="M100.461 233.291L162.065 195.472C179.026 184.91 198.996 180.229 218.887 182.154C248.598 184.752 285.504 210.321 343.719 258.721L282.115 296.633C223.715 248.094 186.994 222.386 157.237 219.973C137.362 218.059 117.409 222.739 100.461 233.291Z" fill="url(#paint4_linear)"/>
<path d="M100.461 233.291L162.065 195.472C179.026 184.91 198.996 180.229 218.887 182.154C248.598 184.752 285.504 210.321 343.719 258.721L282.115 296.633C223.715 248.094 186.785 222.749 157.237 219.973C137.362 218.059 117.409 222.739 100.461 233.291Z" fill="url(#paint5_linear)"/>
<path d="M397.628 304.011L392.104 299.371L330.5 337.144L336.024 341.784C463.828 451.066 638.518 600.07 800.257 617.147L861.861 579.328C700.122 562.297 525.431 413.34 397.628 304.011Z" fill="url(#paint6_linear)"/>
<path d="M800.254 617.151L861.848 579.332L865.19 640.488L803.55 678.261L800.254 617.151Z" fill="url(#paint7_linear)"/>
<path d="M604.072 63.5003L665.676 25.6809C566.098 87.0273 472.462 193.757 392.289 299.327L330.5 337.146C410.859 231.716 504.494 124.615 604.072 63.5003Z" fill="url(#paint8_linear)"/>
<path d="M604.072 63.5003L665.676 25.6809C566.098 87.0273 472.462 193.757 392.289 299.327L330.5 337.146C410.859 231.716 504.494 124.615 604.072 63.5003Z" fill="url(#paint9_linear)"/>
<path d="M1023.64 559.791L961.897 597.471C931.304 616.033 894.072 625.314 850.109 621.648L911.713 583.828C955.676 587.819 992.954 578.538 1023.64 559.791Z" fill="url(#paint10_linear)"/>
<path d="M1023.64 559.791L961.897 597.471C931.304 616.033 894.072 625.314 850.109 621.648L911.713 583.828C955.676 587.819 992.954 578.538 1023.64 559.791Z" fill="url(#paint11_linear)"/>
<path d="M1032.04 88.6493C1087.66 162.654 1119.62 251.727 1123.73 344.197C1133.29 520.533 1041.84 699.375 853.406 682.948L850.397 621.739C1003.46 633.672 1074.99 489.812 1066.82 339.137C1063.63 261.281 1036.71 186.297 990.122 123.824C964.253 91.3351 932.109 64.3809 895.604 44.5653C864.388 27.5439 830.035 17.045 794.634 13.7065C791.013 13.3971 787.392 13.1651 783.771 13.0104C618.69 -1.4213 457.972 169.95 330.494 337.144L336.019 341.784C463.822 451.066 638.512 600.07 800.251 617.147L803.547 678.261C623.286 659.05 439.45 502.204 305.89 387.725L298.694 381.692C274.508 414.407 251.946 446.287 230.823 476.125C139.695 602.112 101.86 653.157 63.0962 649.584C41.8808 647.728 5.8099 630.094 0.564076 533.573C-5.42452 422.853 35.5672 209.3 157.289 219.973C187.046 222.572 223.767 248.094 282.168 296.633C417.12 119.508 590.697 -64.7167 780.243 -48.1504C784.173 -47.9647 788.119 -47.7018 792.081 -47.3615C835.872 -43.2147 878.345 -30.1212 916.866 -8.89238C961.413 15.5736 1000.58 48.7452 1032.04 88.6493ZM181.8 434.779C203.202 405.451 224.417 373.757 249.021 341.32C209.84 308.837 174.744 282.619 160.817 281.366C123.725 278.118 99.2135 325.032 87.7469 351.529C52.0939 438.212 52.6045 549.351 64.5353 584.247C88.5826 565.963 137.838 496.728 181.708 434.825" fill="url(#paint12_linear)"/>
<path d="M1185.32 306.424C1181.21 213.954 1149.25 124.881 1093.63 50.8762C1062.18 11.0105 1023.03 -22.1287 978.504 -46.5726C939.98 -67.856 897.49 -80.9973 853.672 -85.1809C849.742 -85.5212 845.796 -85.7842 841.834 -85.9698C769.228 -92.2808 698.943 -69.1715 632.279 -28.2894L570.676 9.53007C637.34 -31.3521 707.578 -54.5078 780.23 -48.1504C784.161 -47.9648 788.107 -47.7018 792.068 -47.3615C835.86 -43.2148 878.333 -30.1212 916.854 -8.89241C961.375 15.5515 1000.53 48.6907 1031.98 88.5565C1087.6 162.561 1119.56 251.634 1123.67 344.105C1130.45 469.071 1086.53 595.151 993.685 652.229L1055.29 614.409C1148.23 557.425 1192.1 431.344 1185.32 306.424Z" fill="url(#paint13_linear)"/>
</g>
<defs>
<linearGradient id="paint0_linear" x1="57.1914" y1="417.307" x2="195.252" y2="417.307" gradientUnits="userSpaceOnUse">
<stop stop-color="#6FB2CF"/>
<stop offset="1" stop-color="#98EDFF"/>
</linearGradient>
<linearGradient id="paint1_linear" x1="57.1914" y1="417.307" x2="195.252" y2="417.307" gradientUnits="userSpaceOnUse">
<stop stop-color="#6FB2CF"/>
<stop offset="1" stop-color="#98EDFF"/>
</linearGradient>
<linearGradient id="paint2_linear" x1="93.4766" y1="492.575" x2="360.317" y2="492.575" gradientUnits="userSpaceOnUse">
<stop stop-color="#6FB2CF"/>
<stop offset="1" stop-color="#98EDFF"/>
</linearGradient>
<linearGradient id="paint3_linear" x1="93.4766" y1="492.575" x2="360.317" y2="492.575" gradientUnits="userSpaceOnUse">
<stop stop-color="#6FB2CF"/>
<stop offset="1" stop-color="#98EDFF"/>
</linearGradient>
<linearGradient id="paint4_linear" x1="100.461" y1="239.182" x2="343.719" y2="239.182" gradientUnits="userSpaceOnUse">
<stop stop-color="#6FB2CF"/>
<stop offset="1" stop-color="#98EDFF"/>
</linearGradient>
<linearGradient id="paint5_linear" x1="100.461" y1="239.182" x2="343.719" y2="239.182" gradientUnits="userSpaceOnUse">
<stop stop-color="#6FB2CF"/>
<stop offset="1" stop-color="#98EDFF"/>
</linearGradient>
<linearGradient id="paint6_linear" x1="330.5" y1="458.259" x2="861.861" y2="458.259" gradientUnits="userSpaceOnUse">
<stop stop-color="#6FB2CF"/>
<stop offset="1" stop-color="#98EDFF"/>
</linearGradient>
<linearGradient id="paint7_linear" x1="800.254" y1="628.796" x2="865.19" y2="628.796" gradientUnits="userSpaceOnUse">
<stop stop-color="#6FB2CF"/>
<stop offset="1" stop-color="#98EDFF"/>
</linearGradient>
<linearGradient id="paint8_linear" x1="330.5" y1="181.414" x2="665.676" y2="181.414" gradientUnits="userSpaceOnUse">
<stop stop-color="#6FB2CF"/>
<stop offset="1" stop-color="#98EDFF"/>
</linearGradient>
<linearGradient id="paint9_linear" x1="330.5" y1="181.414" x2="665.676" y2="181.414" gradientUnits="userSpaceOnUse">
<stop stop-color="#6FB2CF"/>
<stop offset="1" stop-color="#98EDFF"/>
</linearGradient>
<linearGradient id="paint10_linear" x1="850.109" y1="591.114" x2="1023.64" y2="591.114" gradientUnits="userSpaceOnUse">
<stop stop-color="#6FB2CF"/>
<stop offset="1" stop-color="#98EDFF"/>
</linearGradient>
<linearGradient id="paint11_linear" x1="850.109" y1="591.114" x2="1023.64" y2="591.114" gradientUnits="userSpaceOnUse">
<stop stop-color="#6FB2CF"/>
<stop offset="1" stop-color="#98EDFF"/>
</linearGradient>
<linearGradient id="paint12_linear" x1="0" y1="317.405" x2="1124.41" y2="317.405" gradientUnits="userSpaceOnUse">
<stop stop-color="#6FB2CF"/>
<stop offset="1" stop-color="#98EDFF"/>
</linearGradient>
<linearGradient id="paint13_linear" x1="570.676" y1="282.615" x2="1186" y2="282.615" gradientUnits="userSpaceOnUse">
<stop stop-color="#6FB2CF"/>
<stop offset="1" stop-color="#98EDFF"/>
</linearGradient>
</defs>
</svg>
