<svg width="47" height="46" viewBox="0 0 47 46" fill="none" xmlns="http://www.w3.org/2000/svg">
<path d="M19.4401 33.0022L27.0445 28.1992L20.4716 39.2019L12.8672 43.999L19.4401 33.0022Z" fill="white"/>
<path fill-rule="evenodd" clip-rule="evenodd" d="M27.4486 27.782C27.6361 27.9749 27.6705 28.2748 27.5317 28.5072L20.9587 39.5099C20.9115 39.5888 20.8469 39.6552 20.7701 39.7037L13.1657 44.5008C12.9397 44.6434 12.648 44.6079 12.4606 44.415C12.2732 44.2221 12.239 43.9222 12.3778 43.6898L18.9508 32.6931C18.9979 32.6143 19.0624 32.5479 19.1391 32.4995L26.7435 27.6965C26.9694 27.5538 27.2611 27.5892 27.4486 27.782ZM19.8555 33.4302L14.6092 42.2075L20.054 38.7727L25.2998 29.9916L19.8555 33.4302Z" fill="#47DEFF"/>
<path d="M2.88281 13.5071L10.4872 8.7041L22.3437 14.727L14.7393 19.5241L2.88281 13.5071Z" fill="white"/>
<path fill-rule="evenodd" clip-rule="evenodd" d="M10.1862 8.20238C10.3541 8.09633 10.5632 8.08644 10.7399 8.17618L22.5963 14.1991C22.7834 14.2941 22.9055 14.4862 22.915 14.7005C22.9245 14.9149 22.82 15.1176 22.6422 15.2298L15.0378 20.0269C14.87 20.1327 14.6611 20.1426 14.4845 20.053L2.62806 14.036C2.44097 13.9411 2.31884 13.7491 2.30921 13.5347C2.29958 13.3204 2.40397 13.1177 2.58174 13.0054L10.1862 8.20238ZM10.5162 9.37714L4.06573 13.4513L14.7081 18.8521L21.1583 14.7831L10.5162 9.37714Z" fill="#47DEFF"/>
<path d="M25.9453 28.6355L33.5497 23.8325L41.7272 35.6013L34.1228 40.3984L25.9453 28.6355Z" fill="white"/>
<path fill-rule="evenodd" clip-rule="evenodd" d="M33.2526 23.3304C33.5091 23.1684 33.8437 23.2381 34.0187 23.4899L42.1962 35.2587C42.2886 35.3917 42.3232 35.5582 42.2916 35.7184C42.26 35.8787 42.1651 36.0182 42.0296 36.1037L34.4252 40.9008C34.1687 41.0625 33.8343 40.9928 33.6594 40.7411L25.4819 28.9783C25.3895 28.8453 25.3549 28.6788 25.3864 28.5186C25.4179 28.3584 25.5127 28.2189 25.6482 28.1333L33.2526 23.3304ZM26.7717 28.8069L34.2811 39.6089L40.9063 35.4296L33.397 24.6224L26.7717 28.8069Z" fill="#47DEFF"/>
<path d="M34.1258 40.3987L41.7302 35.6016L35.249 40.5283L27.6445 45.3313L34.1258 40.3987Z" fill="white"/>
<path fill-rule="evenodd" clip-rule="evenodd" d="M42.2042 35.2706C42.3758 35.5322 42.3165 35.8865 42.0697 36.074L35.5885 41.0008C35.5753 41.0108 35.5617 41.0202 35.5477 41.029L27.9433 45.832C27.6818 45.9972 27.3402 45.9212 27.1685 45.6597C26.9968 45.3981 27.0558 45.0439 27.3025 44.8561L33.7838 39.9235C33.7971 39.9134 33.8109 39.9038 33.825 39.8949L41.4294 35.0978C41.691 34.9328 42.0326 35.009 42.2042 35.2706Z" fill="#47DEFF"/>
<path d="M13.9961 5.39185L21.6005 0.588867L29.8124 1.33141L22.208 6.1285L13.9961 5.39185Z" fill="white"/>
<path fill-rule="evenodd" clip-rule="evenodd" d="M21.3034 0.0871491C21.4082 0.0209467 21.531 -0.0088144 21.6535 0.00226555L29.8653 0.744812C30.1116 0.767084 30.3163 0.949296 30.3729 1.19679C30.4296 1.44429 30.3255 1.70126 30.1148 1.83421L22.5104 6.6313C22.4057 6.69732 22.2832 6.72702 22.1609 6.71605L13.9491 5.9794C13.7027 5.9573 13.498 5.77521 13.4412 5.52774C13.3843 5.28026 13.4883 5.02321 13.699 4.89013L21.3034 0.0871491ZM21.7418 1.19344L15.7778 4.96033L22.0722 5.52497L28.0364 1.76262L21.7418 1.19344Z" fill="#47DEFF"/>
<path d="M22.207 6.12814L29.8115 1.33105L30.5564 15.463L22.952 20.2601L22.207 6.12814Z" fill="white"/>
<path fill-rule="evenodd" clip-rule="evenodd" d="M30.0726 0.80966C30.2514 0.906138 30.3677 1.09226 30.3786 1.29961L31.1236 15.4316C31.135 15.6476 31.0303 15.8527 30.851 15.9658L23.2466 20.7629C23.0745 20.8715 22.8595 20.8789 22.6807 20.7824C22.5019 20.6859 22.3857 20.4998 22.3747 20.2925L21.6297 6.1605C21.6184 5.94447 21.723 5.73938 21.9023 5.62626L29.5067 0.829168C29.6789 0.720592 29.8938 0.713182 30.0726 0.80966ZM22.7927 6.44733L23.4671 19.2411L29.9607 15.1447L29.2862 2.351L22.7927 6.44733Z" fill="#47DEFF"/>
<path d="M34.5977 16.3596L42.2021 11.5566L45.4284 20.5143L37.8297 25.3114L34.5977 16.3596Z" fill="white"/>
<path fill-rule="evenodd" clip-rule="evenodd" d="M42.3881 10.9996C42.5502 11.0572 42.6788 11.1865 42.7384 11.3519L45.9646 20.3096C46.0596 20.5734 45.9602 20.8694 45.7271 21.0166L38.1284 25.8136C37.9823 25.9059 37.8037 25.926 37.6416 25.8685C37.4795 25.811 37.351 25.6818 37.2914 25.5165L34.0593 16.5647C33.9641 16.3009 34.0635 16.0047 34.2967 15.8574L41.9011 11.0544C42.0473 10.9621 42.226 10.942 42.3881 10.9996ZM35.2977 16.6084L38.1231 24.434L44.7265 20.2652L41.9061 12.4345L35.2977 16.6084Z" fill="#47DEFF"/>
<path d="M22.9531 20.2609L30.5575 15.4639L42.202 11.5566L34.5976 16.3596L22.9531 20.2609Z" fill="white"/>
<path fill-rule="evenodd" clip-rule="evenodd" d="M42.725 11.3094C42.8469 11.5805 42.7522 11.9026 42.5047 12.0589L34.9003 16.8619C34.8619 16.8861 34.8208 16.9057 34.7779 16.92L23.1335 20.8213C22.8573 20.9139 22.5574 20.7793 22.4357 20.5081C22.3139 20.2369 22.4087 19.9149 22.6563 19.7587L30.2607 14.9616C30.299 14.9374 30.3399 14.918 30.3826 14.9037L42.0271 10.9965C42.3032 10.9038 42.6031 11.0383 42.725 11.3094ZM30.8024 16.0026L27.3887 18.1561L34.3583 15.821L37.775 13.663L30.8024 16.0026Z" fill="#47DEFF"/>
<path d="M22.207 6.12826L22.952 20.2602L34.5964 16.3589L37.8284 25.3107L25.949 28.6345L34.1265 40.3974L27.6453 45.33L19.4391 33.0014L12.8662 43.9981L5.69732 37.8397L12.7115 27.4441L0.574219 21.9575L2.88363 13.5066L14.7401 19.5236L13.9951 5.3916L22.207 6.12826Z" fill="white"/>
<path fill-rule="evenodd" clip-rule="evenodd" d="M13.5956 4.96856C13.7149 4.84981 13.8784 4.79013 14.0439 4.80497L22.2557 5.54162C22.54 5.56712 22.7627 5.8038 22.7781 6.09681L23.4827 19.4627L34.4178 15.799C34.7102 15.7011 35.0255 15.8578 35.1326 16.1542L38.3646 25.106C38.4206 25.2612 38.4106 25.4334 38.337 25.5806C38.2634 25.7278 38.1331 25.8364 37.9778 25.8798L26.8931 28.9812L34.5916 40.0551C34.7735 40.3168 34.7178 40.6802 34.4663 40.8716L27.9851 45.8042C27.86 45.8994 27.7026 45.9382 27.5491 45.9116C27.3956 45.8851 27.2592 45.7954 27.1713 45.6634L19.4639 34.084L13.3533 44.3072C13.2662 44.453 13.1217 44.5526 12.9575 44.5802C12.7933 44.6078 12.6255 44.5606 12.4978 44.4509L5.32886 38.2925C5.10117 38.0969 5.05629 37.7549 5.22543 37.5042L11.8431 27.6962L0.342541 22.4974C0.0811266 22.3793 -0.0557983 22.0812 0.0214589 21.7985L2.33087 13.3476C2.37696 13.1789 2.49366 13.0401 2.64929 12.9687C2.80492 12.8974 2.98335 12.901 3.13614 12.9786L14.1138 18.5495L13.4218 5.42396C13.4129 5.25345 13.4762 5.08731 13.5956 4.96856ZM14.602 6.03816L15.3112 19.4921C15.3223 19.7012 15.2246 19.9006 15.0546 20.0159C14.8847 20.1312 14.668 20.1452 14.4854 20.0525L3.24759 14.3495L1.25952 21.6245L12.941 26.905C13.0977 26.9759 13.2154 27.1151 13.2619 27.2845C13.3084 27.4539 13.2788 27.6359 13.1812 27.7805L6.46579 37.7334L12.724 43.1094L18.9499 32.6932C19.0515 32.5232 19.23 32.4176 19.424 32.4127C19.618 32.4078 19.8013 32.5042 19.9109 32.669L27.7812 44.493L33.3314 40.269L25.4818 28.9777C25.3727 28.8208 25.3452 28.6189 25.4081 28.4372C25.4711 28.2555 25.6165 28.1169 25.7975 28.0663L37.0719 24.9118L34.2497 17.095L23.1284 20.821C22.9591 20.8777 22.7738 20.8503 22.6269 20.7468C22.48 20.6433 22.3883 20.4754 22.3787 20.2926L21.6606 6.67136L14.602 6.03816Z" fill="#47DEFF"/>
</svg>
